<svg version="1.1" xmlns="http://www.w3.org/2000/svg" viewBox="0 0 508.70677185058594 381.1698913574219" width="508.70677185058594" height="381.1698913574219">
  <!-- svg-source:excalidraw -->
  
  <defs>
    <style class="style-fonts">
      @font-face {
        font-family: "Virgil";
        src: url("https://excalidraw.com/Virgil.woff2");
      }
      @font-face {
        font-family: "Cascadia";
        src: url("https://excalidraw.com/Cascadia.woff2");
      }
      @font-face {
        font-family: "Assistant";
        src: url("https://excalidraw.com/Assistant-Regular.woff2");
      }
    </style>
    
  </defs>
  <rect x="0" y="0" width="508.70677185058594" height="381.1698913574219" fill="#ffffff"></rect><g stroke-linecap="round" transform="translate(109.02365112304688 59.899566650390625) rotate(0 117.97923278808594 117.97923278808594)"><path d="M64.5 12.24 C75.18 5, 91.54 2.05, 105.11 0.62 C118.69 -0.81, 132.82 0.41, 145.97 3.66 C159.12 6.92, 173.02 12.82, 184.03 20.16 C195.05 27.5, 204.39 36.98, 212.07 47.73 C219.75 58.48, 226.16 71.8, 230.11 84.67 C234.06 97.55, 236.55 111.68, 235.79 124.96 C235.02 138.25, 230.73 151.93, 225.5 164.39 C220.27 176.85, 213.46 189.97, 204.41 199.72 C195.36 209.47, 183.32 216.83, 171.18 222.89 C159.04 228.96, 144.95 234.63, 131.57 236.11 C118.18 237.59, 103.92 234.92, 90.85 231.78 C77.78 228.63, 64.34 224.48, 53.16 217.25 C41.99 210.03, 31.9 199.3, 23.8 188.44 C15.71 177.58, 8.5 165, 4.59 152.11 C0.68 139.22, -0.65 124.73, 0.34 111.11 C1.33 97.49, 5.24 82.91, 10.53 70.4 C15.81 57.9, 22.07 45.98, 32.07 36.08 C42.07 26.18, 63.26 15.49, 70.53 11 C77.81 6.5, 74.91 7.47, 75.71 9.11 M161.77 7.63 C174.4 10.61, 187.95 20.2, 197.93 29.35 C207.92 38.51, 215.71 50.59, 221.68 62.56 C227.65 74.54, 231.65 87.75, 233.75 101.23 C235.84 114.7, 237.17 130.32, 234.27 143.39 C231.36 156.45, 223.56 168.52, 216.32 179.61 C209.07 190.69, 201.42 201.64, 190.8 209.9 C180.18 218.16, 165.39 224.99, 152.61 229.16 C139.82 233.33, 127.2 235.2, 114.1 234.94 C100.99 234.69, 86.56 232.48, 73.98 227.62 C61.4 222.77, 48.47 215.07, 38.6 205.83 C28.73 196.59, 21.01 184.09, 14.75 172.17 C8.49 160.24, 3.18 147.6, 1.06 134.27 C-1.06 120.94, -0.59 105.53, 2.02 92.18 C4.62 78.83, 9.17 65.54, 16.68 54.16 C24.19 42.79, 36.3 32.21, 47.09 23.93 C57.87 15.65, 68.63 8.39, 81.38 4.49 C94.12 0.59, 110.13 0.02, 123.57 0.53 C137.01 1.03, 155.82 5.97, 162.01 7.52 C168.21 9.07, 161.66 7.88, 160.76 9.83" stroke="#1e1e1e" stroke-width="2" fill="none"></path></g><g transform="translate(34.94482421875 51.972930908203125) rotate(0 8.329994201660156 12.5)"><text x="0" y="0" font-family="Virgil, Segoe UI Emoji" font-size="20px" fill="#1e1e1e" text-anchor="start" style="white-space: pre;" direction="ltr" dominant-baseline="text-before-edge">x1</text></g><g transform="translate(26.31731414794922 249.616455078125) rotate(0 12.739990234375 12.5)"><text x="0" y="0" font-family="Virgil, Segoe UI Emoji" font-size="20px" fill="#1e1e1e" text-anchor="start" style="white-space: pre;" direction="ltr" dominant-baseline="text-before-edge">x2</text></g><g stroke-linecap="round"><g transform="translate(64.97601318359375 68.65945434570312) rotate(0 49.98420715332031 31.558364868164062)"><path d="M-0.83 0.81 C16.13 11.2, 84.32 52.06, 101.01 62.26 M0.94 0.19 C17.89 10.72, 84.4 52.92, 100.61 63.35" stroke="#1e1e1e" stroke-width="2" fill="none"></path></g></g><mask></mask><g stroke-linecap="round"><g transform="translate(60.99615478515625 263.4908447265625) rotate(0 51.52496337890625 -22.95147705078125)"><path d="M-0.48 -0.37 C16.49 -7.73, 85.57 -37.17, 102.69 -44.88 M1.47 -1.61 C18.17 -9.23, 84.35 -39.11, 101.55 -46.47" stroke="#1e1e1e" stroke-width="2" fill="none"></path></g></g><mask></mask><g stroke-linecap="round" transform="translate(213.77291870117188 162.84591674804688) rotate(0 12.977340698242188 15)"><path d="M6.49 0 C10.61 -0.04, 17.13 -1.1, 19.47 0 M6.49 0 C11.14 0.02, 16.54 -0.58, 19.47 0 M19.47 0 C22.54 -1.96, 25.25 1.53, 25.95 6.49 M19.47 0 C23.19 1.9, 24.91 2.62, 25.95 6.49 M25.95 6.49 C25.91 10.75, 24.26 13.16, 25.95 23.51 M25.95 6.49 C26.72 11.57, 26.12 17.33, 25.95 23.51 M25.95 23.51 C27.09 26.75, 22.76 30.87, 19.47 30 M25.95 23.51 C25.54 27.71, 23.07 29.17, 19.47 30 M19.47 30 C13.57 30.73, 10.18 30.94, 6.49 30 M19.47 30 C15.89 30.34, 12.75 29.63, 6.49 30 M6.49 30 C2.07 30.44, 1.96 29.33, 0 23.51 M6.49 30 C3.27 27.95, 1.4 29.03, 0 23.51 M0 23.51 C-0.85 17.37, -1.32 14.12, 0 6.49 M0 23.51 C0.63 19.43, 0.77 15.58, 0 6.49 M0 6.49 C-1.45 0.98, 2.49 1.34, 6.49 0 M0 6.49 C-1.62 1.12, 1.52 -1.21, 6.49 0" stroke="#e03131" stroke-width="2" fill="none"></path></g><g transform="translate(221.75025939941406 167.84591674804688) rotate(0 5 10)"><text x="5" y="0" font-family="Virgil, Segoe UI Emoji" font-size="16px" fill="#e03131" text-anchor="middle" style="white-space: pre;" direction="ltr" dominant-baseline="text-before-edge">+</text></g><g stroke-linecap="round" transform="translate(164.88682556152344 121.03445434570312) rotate(0 12.977340698242188 15)"><path d="M6.49 0 C10.06 1.16, 13.54 0.31, 19.47 0 M6.49 0 C10.64 -0.17, 14.59 -0.5, 19.47 0 M19.47 0 C25.78 -1.72, 25.69 4.06, 25.95 6.49 M19.47 0 C22.79 -0.14, 24.86 1.4, 25.95 6.49 M25.95 6.49 C25.7 11.29, 25.03 18.8, 25.95 23.51 M25.95 6.49 C25.69 13.43, 26.17 20.41, 25.95 23.51 M25.95 23.51 C26.09 28.94, 22.39 31.32, 19.47 30 M25.95 23.51 C27.24 28.24, 24.78 31.44, 19.47 30 M19.47 30 C16.25 30.94, 11.56 30.27, 6.49 30 M19.47 30 C16.8 30.19, 13.75 29.55, 6.49 30 M6.49 30 C3.56 31.08, 1.76 27.12, 0 23.51 M6.49 30 C2.27 30.78, -0.54 27.3, 0 23.51 M0 23.51 C0.7 18.9, 1.17 10.16, 0 6.49 M0 23.51 C-0.61 17.56, 0.27 11.03, 0 6.49 M0 6.49 C0.19 0.68, 1.2 -0.82, 6.49 0 M0 6.49 C-0.17 4.13, 3.79 1.12, 6.49 0" stroke="#e03131" stroke-width="2" fill="none"></path></g><g transform="translate(173.73616790771484 126.03445434570312) rotate(0 4.127998352050781 10)"><text x="4.127998352050781" y="0" font-family="Virgil, Segoe UI Emoji" font-size="16px" fill="#e03131" text-anchor="middle" style="white-space: pre;" direction="ltr" dominant-baseline="text-before-edge">*</text></g><g stroke-linecap="round" transform="translate(164.0344696044922 201.98944091796875) rotate(0 12.977340698242188 15)"><path d="M6.49 0 C11.05 -0.27, 15.22 -0.93, 19.47 0 M6.49 0 C12.29 -0.27, 16.82 -0.29, 19.47 0 M19.47 0 C23.12 0.46, 25.88 1.77, 25.95 6.49 M19.47 0 C23.45 -0.95, 24.72 3.93, 25.95 6.49 M25.95 6.49 C25.43 13.69, 26.4 20.99, 25.95 23.51 M25.95 6.49 C26.61 12.19, 26.2 17.3, 25.95 23.51 M25.95 23.51 C27.21 27.95, 25.36 31.54, 19.47 30 M25.95 23.51 C27.3 29.33, 23.84 30.31, 19.47 30 M19.47 30 C16.83 30.3, 13.4 29.02, 6.49 30 M19.47 30 C14.43 30.14, 10.08 29.96, 6.49 30 M6.49 30 C1.7 31.4, 0.61 26.28, 0 23.51 M6.49 30 C3.18 32.28, 1.65 26.82, 0 23.51 M0 23.51 C-1.22 17.72, 0.54 10.79, 0 6.49 M0 23.51 C-0.22 18.18, 0.85 13.58, 0 6.49 M0 6.49 C0.97 1.94, 2.36 -0.55, 6.49 0 M0 6.49 C-1.36 0.55, 0.19 0.26, 6.49 0" stroke="#e03131" stroke-width="2" fill="none"></path></g><g transform="translate(172.8838119506836 206.98944091796875) rotate(0 4.127998352050781 10)"><text x="4.127998352050781" y="0" font-family="Virgil, Segoe UI Emoji" font-size="16px" fill="#e03131" text-anchor="middle" style="white-space: pre;" direction="ltr" dominant-baseline="text-before-edge">*</text></g><g stroke-linecap="round"><g transform="translate(189.315185546875 144.06820678710938) rotate(0 13.944412231445312 10.029388427734375)"><path d="M-0.83 0.94 C3.82 4.3, 22.43 16.61, 27.16 19.84 M0.93 0.39 C6.04 3.96, 25.21 17.71, 29.48 21.26" stroke="#1e1e1e" stroke-width="2" fill="none"></path></g></g><mask></mask><g stroke-linecap="round"><g transform="translate(190.14755249023438 209.10385131835938) rotate(0 13.33197021484375 -8.170242309570312)"><path d="M0.04 -0.96 C4.55 -3.75, 22.14 -13.95, 26.41 -16.67 M-1.39 1.15 C2.99 -1.48, 20.43 -12.38, 25.33 -15.31" stroke="#1e1e1e" stroke-width="2" fill="none"></path></g></g><mask></mask><g stroke-linecap="round"><g transform="translate(129.84109497070312 106.1866455078125) rotate(0 -30.279647827148438 -17.613845825195312)"><path d="M-0.89 -1.12 C-10.92 -6.78, -50.58 -29.13, -60.35 -34.71 M0.84 0.91 C-9.32 -5.04, -51.09 -30.31, -61.2 -36.56" stroke="#1e1e1e" stroke-width="4" fill="none"></path></g></g><mask></mask><g stroke-linecap="round"><g transform="translate(124.66122436523438 236.60031127929688) rotate(0 -32.05706787109375 13.422531127929688)"><path d="M-0.05 -0.41 C-10.63 4.3, -53.82 22.85, -64.6 27.52 M-1.53 -1.67 C-12.21 2.75, -55.1 21.19, -65.81 25.75" stroke="#1e1e1e" stroke-width="4" fill="none"></path></g></g><mask></mask><g stroke-linecap="round"><g transform="translate(346.9767150878906 176.8199462890625) rotate(0 50.164093017578125 -1.6844329833984375)"><path d="M-1.02 -0.17 C15.67 -0.72, 84.21 -3.09, 101.14 -3.46 M0.65 -1.3 C17.16 -1.64, 84.08 -1.48, 100.62 -1.98" stroke="#1e1e1e" stroke-width="4" fill="none"></path></g></g><mask></mask><g stroke-linecap="round" transform="translate(284.8016052246094 146.53610229492188) rotate(0 18 30)"><path d="M23.75 7.75 C25.89 12.02, 27.18 13.52, 31.25 23.25 M23.75 7.75 C26.28 13.2, 29.06 19.06, 31.25 23.25 M31.25 23.25 C37.56 32.37, 34.82 30.83, 31.25 38.75 M31.25 23.25 C38.24 29.88, 37.12 30.7, 31.25 38.75 M31.25 38.75 C28.26 42.87, 26.92 44.85, 23.75 52.25 M31.25 38.75 C28.5 44.05, 25.63 47.8, 23.75 52.25 M23.75 52.25 C18.17 59.65, 20.41 61.71, 14.25 52.25 M23.75 52.25 C19.18 59.66, 19.94 59.08, 14.25 52.25 M14.25 52.25 C9.62 48.57, 7.71 41.06, 4.75 38.75 M14.25 52.25 C11.06 46.88, 7.33 42.47, 4.75 38.75 M4.75 38.75 C0.28 29.37, 0.92 30.52, 4.75 23.25 M4.75 38.75 C0.65 32.5, -0.3 32.64, 4.75 23.25 M4.75 23.25 C6.77 18.64, 12.74 13.57, 14.25 7.75 M4.75 23.25 C7.78 16.92, 11.7 12.66, 14.25 7.75 M14.25 7.75 C17.53 -1.94, 17.53 -1.29, 23.75 7.75 M14.25 7.75 C17.27 0.74, 18.67 -1.13, 23.75 7.75" stroke="#f08c00" stroke-width="2" fill="none"></path></g><g transform="translate(298.91361236572266 166.53610229492188) rotate(0 3.8879928588867188 10)"><text x="3.8879928588867188" y="0" font-family="Virgil, Segoe UI Emoji" font-size="16px" fill="#f08c00" text-anchor="middle" style="white-space: pre;" direction="ltr" dominant-baseline="text-before-edge">f</text></g><g stroke-linecap="round"><g transform="translate(242.63363647460938 177.48721313476562) rotate(0 21.12005615234375 0.202178955078125)"><path d="M0.2 0.24 C7.17 0.28, 34.93 0.61, 41.96 0.65 M-0.36 -0.12 C6.77 -0.28, 35.98 -0.4, 43.05 -0.18" stroke="#1e1e1e" stroke-width="2" fill="none"></path></g></g><mask></mask><g stroke-linecap="round"><g transform="translate(323.4373474121094 177.22048950195312) rotate(0 13.5054931640625 -0.4708404541015625)"><path d="M0.42 -0.1 C4.87 -0.37, 22.79 -1.27, 27.21 -1.41 M-0.03 -0.63 C4.32 -0.86, 22.44 -1, 26.88 -0.95" stroke="#1e1e1e" stroke-width="2" fill="none"></path></g></g><mask></mask><g transform="translate(465.6272277832031 156.4893798828125) rotate(0 4.689994812011719 12.5)"><text x="0" y="0" font-family="Virgil, Segoe UI Emoji" font-size="20px" fill="#1e1e1e" text-anchor="start" style="white-space: pre;" direction="ltr" dominant-baseline="text-before-edge">y</text></g><g stroke-linecap="round" transform="translate(10 11.45123291015625) rotate(0 34.60377502441406 153.6829071044922)"><path d="M17.3 0 C29.91 1.33, 42.36 -0.65, 51.91 0 M51.91 0 C64.67 -1.46, 70.61 6.13, 69.21 17.3 M69.21 17.3 C70.58 91.06, 70.76 162.39, 69.21 290.06 M69.21 290.06 C69.57 302.43, 61.48 307.33, 51.91 307.37 M51.91 307.37 C37.23 308.82, 26.54 309.11, 17.3 307.37 M17.3 307.37 C6.07 309.16, 0.68 301.46, 0 290.06 M0 290.06 C-1.82 201.48, -0.93 116.99, 0 17.3 M0 17.3 C0.26 5.45, 6.15 0.32, 17.3 0" stroke="#1e1e1e" stroke-width="2.5" fill="none" stroke-dasharray="1.5 8"></path></g><g stroke-linecap="round" transform="translate(104.21516418457031 10) rotate(0 129.96864318847656 153.6829071044922)"><path d="M32 0 C70.32 0.02, 109.65 -0.11, 227.94 0 M227.94 0 C249.98 1.11, 259.83 9.63, 259.94 32 M259.94 32 C258.72 104.95, 258.73 177.39, 259.94 275.37 M259.94 275.37 C259.78 296.5, 249.03 307.86, 227.94 307.37 M227.94 307.37 C158.85 305.83, 87.56 305.66, 32 307.37 M32 307.37 C9.99 307.34, 0.5 296.12, 0 275.37 M0 275.37 C-2.23 179.01, -1.29 85.12, 0 32 M0 32 C0.32 11.44, 10.35 0.72, 32 0" stroke="#1e1e1e" stroke-width="2.5" fill="none" stroke-dasharray="1.5 8"></path></g><g stroke-linecap="round" transform="translate(424.6004180908203 19.009017944335938) rotate(0 37.05317687988281 153.6829071044922)"><path d="M18.53 0 C31.62 1.5, 43.65 -0.44, 55.58 0 M55.58 0 C68.42 1.96, 74.26 7.6, 74.11 18.53 M74.11 18.53 C73.81 95.13, 74.12 170.53, 74.11 288.84 M74.11 288.84 C74.87 300.49, 66.94 306.74, 55.58 307.37 M55.58 307.37 C46.45 308.63, 42.1 307.31, 18.53 307.37 M18.53 307.37 C4.97 305.53, 1.53 299.21, 0 288.84 M0 288.84 C1 230.6, 0.02 169.08, 0 18.53 M0 18.53 C1.37 6.03, 4.26 1.49, 18.53 0" stroke="#1e1e1e" stroke-width="2.5" fill="none" stroke-dasharray="1.5 8"></path></g><g transform="translate(22.35528564453125 343.0346984863281) rotate(0 20 12.5)"><text x="0" y="0" font-family="Virgil, Segoe UI Emoji" font-size="20px" fill="#1e1e1e" text-anchor="start" style="white-space: pre;" direction="ltr" dominant-baseline="text-before-edge">输入</text></g><g transform="translate(197.33798217773438 345.3030090332031) rotate(0 40 12.5)"><text x="0" y="0" font-family="Virgil, Segoe UI Emoji" font-size="20px" fill="#1e1e1e" text-anchor="start" style="white-space: pre;" direction="ltr" dominant-baseline="text-before-edge">数学运算</text></g><g transform="translate(441.671630859375 346.1698913574219) rotate(0 20 12.5)"><text x="0" y="0" font-family="Virgil, Segoe UI Emoji" font-size="20px" fill="#1e1e1e" text-anchor="start" style="white-space: pre;" direction="ltr" dominant-baseline="text-before-edge">输出</text></g></svg>